# xmcd CD database file
#
# Track frame offsets:
#	183
#	40608
#	51340
#	97978
#	103158
#	112283
#	170965
#	221733
#	230208
#
# Disc length: 3654 seconds
#
# Revision: 0
# Processed by: cddbd v1.5.1PL0 Copyright (c) Steve Scherf et al.
# Submitted via: CDex 1.51
#
DISCID=890e4409
DTITLE=Roscoe Mitchell and The Sound Ensemble - Live at the Knitting Factory
DYEAR=1987
DGENRE=Jazz
TTITLE0=Almos like Raindrops
TTITLE1=Bass solo from the composition sing
TTITLE2=Nonaah
TTITLE3=The flight of birds
TTITLE4=Trumpet solo from the composition rock out
TTITLE5=The reverend Frank Wright
TTITLE6=You Changet the texture on me
TTITLE7=Beyond the fast lane
TTITLE8=The stick and the stone
EXTD=YEAR: 1987
EXTT0=
EXTT1=
EXTT2=
EXTT3=
EXTT4=
EXTT5=
EXTT6=
EXTT7=
EXTT8=
PLAYORDER=
